# xmcd
#
# Track frame offsets:
#	150
#	12987
#	28863
#	47761
#	66254
#	81472
#	93927
#	115584
#	127229
#	144426
#	165070
#	185112
#	203099
#	214435
#	230628
#
# Disc length: 3288 seconds
#
# Revision: 1
# Processed by: cddbd v1.5.2PL0 Copyright (c) Steve Scherf et al.
# Submitted via: audiograbber 1.83.01
#
DISCID=d80cd60f
DTITLE=Snowy Robson - Another Evening
DYEAR=1900
DGENRE=Country
TTITLE0=My Girl
TTITLE1=Sundown
TTITLE2=Old Dogs and Children
TTITLE3=Sunday Morning Coming Down
TTITLE4=For The Good Times
TTITLE5=Father and Son
TTITLE6=Let It Be Me
TTITLE7=I Can't Stop Loving You
TTITLE8=Lady
TTITLE9=King Of Oak Street
TTITLE10=Honey
TTITLE11=Streets Of London
TTITLE12=Streets Of Laredo
TTITLE13=The Gambler
TTITLE14=Sweet Caroline
EXTD=
EXTT0=
EXTT1=
EXTT2=
EXTT3=
EXTT4=
EXTT5=
EXTT6=
EXTT7=
EXTT8=
EXTT9=
EXTT10=
EXTT11=
EXTT12=
EXTT13=
EXTT14=
PLAYORDER=
